<svg xmlns="http://www.w3.org/2000/svg" width="596" height="624" viewBox="0 0 596 624" version="1.1">
  
    <path fill="#61afef" d="M 254.466 198.056 C 254.107 198.636, 252.506 204.093, 250.909 210.182 C 247.339 223.789, 241.626 237.008, 233.389 250.722 C 222.362 269.083, 212.454 279.909, 197.352 290.100 C 182.944 299.822, 158.381 310.116, 141.128 313.663 C 132.012 315.536, 126.921 317.816, 129.113 319.043 C 129.914 319.491, 134.603 320.834, 139.534 322.028 C 162.273 327.530, 184.452 336.740, 201.344 347.693 C 211.257 354.122, 224.113 366.917, 230.214 376.428 C 240.314 392.174, 249.040 413.285, 251.943 429 C 253.321 436.461, 255.518 440.398, 256.981 438.030 C 257.478 437.227, 259.088 431.604, 260.560 425.535 C 266.813 399.746, 278.952 376.402, 294.660 359.961 C 310.908 342.954, 333.616 330.383, 360.500 323.511 C 375.328 319.721, 378 318.802, 378 317.489 C 378 316.821, 374.599 315.532, 370.250 314.552 C 348.839 309.725, 339.170 306.310, 323.092 297.893 C 300.158 285.887, 285.343 270.579, 273.132 246.270 C 267.619 235.296, 264.427 226.614, 261.461 214.527 C 257.756 199.427, 257.002 197, 256.019 197 C 255.523 197, 254.824 197.475, 254.466 198.056"/>

    <path d="M 27.500 3.387 C 14.954 7.346, 4.732 19.453, 2.049 33.533 C 1.263 37.653, 1.003 55.903, 1.206 92.500 L 1.500 145.500 3.873 140.500 C 9.480 128.687, 16.500 118.586, 25.351 109.595 C 33.431 101.387, 35.756 99.679, 45.250 94.971 L 56 89.640 56 71.320 L 56 53 256.473 53 L 456.947 53 457.223 67.750 L 457.500 82.500 484.323 82.766 L 511.145 83.033 510.823 56.266 C 510.502 29.638, 510.486 29.470, 507.820 23.782 C 504.280 16.229, 497.405 9.035, 490.278 5.426 L 484.500 2.500 258 2.312 C 77.997 2.163, 30.679 2.384, 27.500 3.387 M 521.015 25.037 C 522.979 30.020, 523 33.079, 522.964 312.287 L 522.927 594.500 519.048 603.500 C 516.915 608.450, 513.756 614.188, 512.028 616.250 C 508.951 619.924, 508.934 620, 511.194 619.993 C 516.648 619.978, 522.606 613.673, 526.643 603.644 L 529.500 596.548 529.500 316.524 L 529.500 36.500 526.750 30.720 C 525.237 27.542, 524 24.574, 524 24.125 C 524 23.187, 520.667 20, 519.686 20 C 519.325 20, 519.923 22.267, 521.015 25.037 M 541.761 321.697 L 541.500 599.500 538.168 607.500 C 536.336 611.900, 533.901 617.020, 532.757 618.879 L 530.678 622.257 533.089 620.660 C 538.255 617.238, 543.299 608.997, 546.347 599 C 547.901 593.902, 548.004 573.778, 547.762 324 C 547.510 64.850, 547.429 54.318, 545.656 49.751 C 544.642 47.139, 543.410 44.753, 542.917 44.449 C 542.390 44.123, 541.914 158.346, 541.761 321.697 M 559.755 324.701 C 560.009 592.539, 559.997 594.453, 557.992 601.760 C 556.037 608.888, 552.815 615.967, 549.287 620.885 L 547.577 623.270 550.538 621.720 C 555.035 619.367, 559.465 614.202, 563.163 607 L 566.500 600.500 566.500 334.500 L 566.500 68.500 563.313 61.750 C 561.560 58.038, 559.985 55, 559.813 55 C 559.641 55, 559.615 176.366, 559.755 324.701 M 575.618 66.250 C 576.995 69.888, 577.353 591.150, 575.985 599.172 C 575.325 603.039, 573.197 609.127, 570.923 613.653 C 568.765 617.948, 567 621.634, 567 621.845 C 567 622.055, 569.138 621.916, 571.750 621.535 C 578.636 620.532, 584.507 616.723, 588.461 610.691 C 595.569 599.849, 595.048 622.306, 594.760 339.461 L 594.500 84.500 591.739 79 C 587.642 70.841, 580.832 64, 576.807 64 C 575.106 64, 574.908 64.374, 575.618 66.250 M 105 94.065 C 84.244 96.364, 69.182 100.426, 54.303 107.740 C 39.058 115.234, 29.571 125.188, 19.622 144.128 C 5.345 171.307, 4.057 184.748, 4.065 306.500 C 4.070 386.586, 5.050 425.593, 7.381 438.526 C 13.529 472.631, 35.816 498.906, 67 508.813 C 82.728 513.810, 100.579 516.002, 125.474 515.994 C 155.232 515.985, 169.819 513.250, 187.796 504.307 C 206.547 494.981, 219.728 480.461, 225.748 462.500 C 228.232 455.089, 228.431 453.249, 228.454 437.500 C 228.481 418.447, 226.856 409.262, 222.182 402.055 L 219.553 398 195.395 398 L 171.237 398 170.539 406.750 C 169.685 417.474, 166.863 430.901, 164.135 437.220 C 157.916 451.623, 141.746 459.952, 119.932 459.985 C 96.510 460.021, 83.326 450.073, 77.295 427.810 C 75.741 422.072, 75.555 411.386, 75.244 310 C 75.026 238.801, 75.267 195.752, 75.910 190.898 C 77.419 179.512, 80.301 172.869, 86.758 165.894 C 96.125 155.777, 105.915 152.031, 123.040 152.012 C 143.589 151.989, 157.237 158.074, 164.503 170.500 C 168.716 177.703, 170.267 185.457, 170.903 202.500 L 171.500 218.500 196 218.782 C 209.475 218.936, 221.496 218.820, 222.713 218.522 C 224.409 218.107, 225.434 216.408, 227.106 211.240 C 230.204 201.663, 231.063 168.361, 228.535 155.860 C 225.307 139.903, 217.551 126.075, 206.006 115.695 C 196.505 107.153, 176.869 98.810, 158.500 95.512 C 147.666 93.566, 116.995 92.737, 105 94.065 M 278.387 101.434 C 278.085 102.222, 278.034 122.810, 278.274 147.184 C 278.765 196.913, 278.783 197.065, 287.107 221.500 C 293.857 241.316, 298.793 250.587, 306.755 258.401 C 330.655 281.858, 379.527 300.277, 421.750 301.739 L 437 302.268 437 406.134 L 437 510 471.502 510 L 506.005 510 505.752 305.250 L 505.500 100.500 471.250 100.237 L 437 99.974 437 173.997 L 437 248.020 390.955 247.760 L 344.910 247.500 344.946 175.309 C 344.966 135.603, 344.713 102.416, 344.384 101.559 C 343.859 100.191, 339.804 100, 311.362 100 C 284.130 100, 278.849 100.230, 278.387 101.434  M 331.500 358.713 C 322.252 363.455, 319.129 365.720, 311.895 372.927 C 303.890 380.903, 302.798 382.509, 296.216 396 C 292.325 403.975, 287.327 415.900, 285.111 422.500 C 278.690 441.617, 277.928 448.154, 278.234 481.533 L 278.500 510.500 310.932 510.764 C 336.213 510.970, 343.541 510.749, 344.167 509.764 C 345.111 508.277, 345.297 364.448, 344.364 357.640 C 344.014 355.088, 343.452 353.016, 343.114 353.036 C 342.776 353.056, 337.550 355.611, 331.500 358.713 M 1.215 530.046 L 1.504 590.500 3.966 596.790 C 9.017 609.696, 20.806 618.968, 34.722 620.980 C 43.922 622.311, 471.333 622.343, 479.449 621.014 C 491.904 618.975, 501.608 611.669, 507.294 600.051 L 510.500 593.500 510.811 559.734 L 511.121 525.967 484.311 526.234 L 457.500 526.500 457.229 546.250 L 456.958 566 256.479 566 L 56 566 56 543.519 L 56 521.038 53.284 520.356 C 51.790 519.981, 46.549 517.385, 41.637 514.587 C 27.550 506.562, 13.355 491.610, 4.529 475.500 C 3.022 472.750, 1.595 470.296, 1.357 470.046 C 1.120 469.796, 1.056 496.796, 1.215 530.046" stroke="none" fill="#abb2bf" fill-rule="evenodd"/>
</svg>